<svg width="49" height="19" viewBox="0 0 49 19" fill="none" xmlns="http://www.w3.org/2000/svg">
<g clip-path="url(#clip0_16_5098)">
<path d="M0 0.0217971C0 0.0217971 1.94229 -0.218995 3.23725 0.908401C4.03647 1.60378 4.26932 2.71237 4.26932 2.71237L6.91369 12.8312L9.11314 4.54944C9.32675 3.66923 9.7132 2.58049 10.3237 1.84467C11.1028 0.907554 12.6845 0.848391 12.8531 0.848391C13.0218 0.848391 14.6027 0.907648 15.3811 1.84467C15.9916 2.58049 16.378 3.66848 16.5924 4.54944L18.7918 12.8312L21.4354 2.71227C21.4354 2.71227 21.6692 1.60388 22.4684 0.908401C23.7634 -0.219089 25.7049 0.021703 25.7049 0.021703L20.6411 18.9322C20.6411 18.9322 18.971 19.0514 18.1348 18.6306C17.0368 18.0779 16.5155 17.6516 15.8504 15.078C15.5142 13.7616 15.1822 12.4442 14.8543 11.1258L14.7298 10.6292C14.4156 9.36767 14.0996 8.10662 13.7818 6.84599L13.6613 6.37231C13.5505 5.94284 13.4742 5.65389 13.447 5.56707C13.3722 5.32938 13.283 4.76333 12.8525 4.76333C12.4315 4.76333 12.3343 5.33013 12.258 5.56707C12.2299 5.65389 12.1536 5.94199 12.0436 6.37222L11.923 6.84599C11.6665 7.85916 11.4122 8.87284 11.1599 9.88703L11.0363 10.3813C10.6473 11.9482 10.2537 13.514 9.85541 15.0786C9.19028 17.6516 8.66821 18.0788 7.57002 18.6306C6.73386 19.0514 5.06384 18.9322 5.06384 18.9322L0 0.0217971ZM30.523 3.1584V3.84127H30.5246V15.2565C30.5157 17.599 30.2853 18.1192 29.2828 18.6584C28.5035 19.0776 27.3115 18.919 27.3115 18.919V6.13143C27.3115 5.48966 27.5139 5.06884 28.2602 4.69147C28.706 4.46573 29.1212 4.29275 29.5534 4.037C30.1439 3.68964 30.4434 3.27672 30.5093 3.17881L30.523 3.1584ZM32.1312 0.0849109C32.1312 0.0849109 34.7474 -0.370619 36.0431 0.834941C36.7717 1.51311 37.5774 2.66891 37.7598 2.93576L37.7942 2.98627L37.7982 2.99257L40.0796 6.35265C40.1897 6.52713 40.3342 6.71742 40.5656 6.71742C40.7961 6.71742 40.9415 6.52789 41.0523 6.35265L43.3329 2.99257L43.3369 2.98627L43.3714 2.93576C43.5537 2.66891 44.3595 1.51311 45.0888 0.834188C46.3837 -0.370619 49 0.0841584 49 0.0841584L42.8011 9.50741L48.9832 18.8999C48.9832 18.8999 46.3066 19.252 45.0109 18.0465C44.1819 17.276 43.3328 16.0214 43.3328 16.0214L41.0516 12.6622C40.9415 12.4869 40.796 12.2966 40.5656 12.2966C40.3343 12.2966 40.1897 12.4862 40.0787 12.6622L37.7982 16.0214C37.7982 16.0214 36.9958 17.276 36.1676 18.0465C34.8719 19.252 32.1472 18.8999 32.1472 18.8999L38.3293 9.50741L32.1312 0.0849109ZM30.5166 0.00044557H30.5246C30.5246 1.25576 30.404 2.00184 29.6329 2.58134C29.275 2.8517 28.8802 3.07142 28.4602 3.23411C28.0343 3.39756 27.6443 3.63989 27.3115 3.94793C27.3115 1.66153 27.6512 0.833342 28.5646 0.343104C29.1325 0.0383515 30.0651 0.00354953 30.4001 0.00044557H30.5166Z" fill="#CECECE"/>
</g>
<defs>
<clipPath id="clip0_16_5098">
<rect width="49" height="19" fill="white"/>
</clipPath>
</defs>
</svg>
