<svg width="21" height="21" viewBox="0 0 21 21" fill="none" xmlns="http://www.w3.org/2000/svg">
<g clip-path="url(#clip0_16_5100)">
<path d="M0 5.25C0 2.35052 2.35052 0 5.25 0H15.75C18.6495 0 21 2.35052 21 5.25V15.75C21 18.6495 18.6495 21 15.75 21H5.25C2.35052 21 0 18.6495 0 15.75V5.25Z" fill="#FFDD33"/>
<path d="M13.9613 4.00293H12.055L13.6436 6.79412L10.1487 4.00293H8.24234L9.98985 7.41445L6.33601 4.00293H4.42969L6.33601 8.34542L4.42969 17.0295H6.33601L9.98985 7.72502L8.24234 17.0295H10.1487L13.6436 7.1047L12.055 17.0295H13.9613L17.4563 6.17372L13.9613 4.00293Z" fill="black"/>
</g>
<defs>
<clipPath id="clip0_16_5100">
<rect width="21" height="21" fill="white"/>
</clipPath>
</defs>
</svg>
