<svg width="21" height="31" viewBox="0 0 21 31" fill="none" xmlns="http://www.w3.org/2000/svg">
<g clip-path="url(#clip0_16_5087)">
<path d="M5.25 31.0003C8.148 31.0003 10.5 28.6857 10.5 25.8337V20.667H5.25C2.352 20.667 0 22.9817 0 25.8337C0 28.6857 2.352 31.0003 5.25 31.0003Z" fill="#0ACF83"/>
<path d="M0 15.4997C0 12.6477 2.352 10.333 5.25 10.333H10.5V20.6663H5.25C2.352 20.6663 0 18.3517 0 15.4997Z" fill="#A259FF"/>
<path d="M0 5.16667C0 2.31467 2.352 0 5.25 0H10.5V10.3333H5.25C2.352 10.3333 0 8.01867 0 5.16667Z" fill="#F24E1E"/>
<path d="M10.5 0H15.75C18.648 0 21 2.31467 21 5.16667C21 8.01867 18.648 10.3333 15.75 10.3333H10.5V0Z" fill="#FF7262"/>
<path d="M21 15.4997C21 18.3517 18.648 20.6663 15.75 20.6663C12.852 20.6663 10.5 18.3517 10.5 15.4997C10.5 12.6477 12.852 10.333 15.75 10.333C18.648 10.333 21 12.6477 21 15.4997Z" fill="#1ABCFE"/>
</g>
<defs>
<clipPath id="clip0_16_5087">
<rect width="21" height="31" fill="white"/>
</clipPath>
</defs>
</svg>
