<svg width="32" height="31" viewBox="0 0 32 31" fill="none" xmlns="http://www.w3.org/2000/svg">
<g clip-path="url(#clip0_16_5093)">
<path d="M26.6875 0H5.3125C2.37849 0 0 2.35946 0 5.27V25.6804C0 28.5909 2.37849 30.9504 5.3125 30.9504H26.6875C29.6215 30.9504 32 28.5909 32 25.6804V5.27C32 2.35946 29.6215 0 26.6875 0Z" fill="#470137"/>
<path d="M16.8221 8.13929L12.8292 14.6769L17.1011 21.6191C17.1286 21.6677 17.1362 21.7247 17.1226 21.7788C17.1159 21.8019 17.1017 21.8076 17.0798 21.8084L17.0556 21.8081L17.0261 21.8073C17.0101 21.8073 16.9922 21.8081 16.9723 21.8113H13.8923L13.8318 21.8103C13.6658 21.806 13.5462 21.7824 13.4733 21.6616C13.1883 21.1109 12.9021 20.5608 12.6146 20.0113C12.3574 19.5212 12.0932 19.0348 11.8221 18.5522L11.7023 18.3397C11.378 17.7679 11.0596 17.193 10.7471 16.6148H10.7256C10.4369 17.1869 10.1399 17.7548 9.83468 18.3183C9.52676 18.8863 9.22264 19.4506 8.9223 20.0113C8.62175 20.5724 8.31406 21.1296 7.9993 21.6829C7.94868 21.7958 7.86455 21.8193 7.74743 21.8232L7.69868 21.8239H4.7578L4.74505 21.8243L4.70305 21.828C4.67968 21.8294 4.66568 21.8244 4.66118 21.7895C4.65317 21.7375 4.66465 21.6845 4.69343 21.6404L8.83643 14.8899L4.80068 8.11821C4.75785 8.06167 4.75068 8.01554 4.77918 7.97983C4.79502 7.96164 4.81491 7.94735 4.83728 7.93809C4.85965 7.92884 4.88388 7.92487 4.90805 7.92651H7.9348C8.00081 7.92296 8.06679 7.93389 8.12805 7.9585C8.1793 7.98739 8.22343 8.02745 8.2568 8.07568C8.51439 8.6436 8.80064 9.21144 9.11555 9.77919C9.42799 10.3433 9.74642 10.9041 10.0708 11.4615C10.3902 12.0103 10.6874 12.5715 10.9617 13.1438H10.9832C11.2643 12.5716 11.5541 12.0037 11.8526 11.4403C12.1457 10.8866 12.4462 10.3293 12.7541 9.76853C13.0579 9.21499 13.3549 8.65778 13.6449 8.09701C13.6614 8.04443 13.6909 7.99682 13.7308 7.9585C13.7838 7.93185 13.8434 7.92075 13.9026 7.92651H16.7147C16.7405 7.92012 16.7678 7.92222 16.7923 7.93251C16.8169 7.94281 16.8374 7.96072 16.8508 7.98357C16.8642 8.00643 16.8697 8.03297 16.8666 8.05922C16.8635 8.08547 16.8518 8.11 16.8334 8.12913L16.8221 8.13929ZM23.1308 22.0859L22.9828 22.0876C21.9947 22.1025 21.0157 21.8989 20.1169 21.4914C19.2797 21.107 18.5798 20.4795 18.1098 19.6919C17.6359 18.9111 17.3928 17.9383 17.3804 16.7735L17.3799 16.6787C17.3719 15.7013 17.6237 14.7391 18.1099 13.8891C18.5966 13.0477 19.306 12.3545 20.1614 11.8845L20.2351 11.8448C21.1651 11.3337 22.2885 11.0781 23.6053 11.0781L23.6628 11.0787L23.7286 11.0808L23.8023 11.084L23.8843 11.0888L24.0221 11.0984L24.1781 11.1108L24.2922 11.1207V6.92558C24.2922 6.8263 24.3351 6.77662 24.4209 6.77653H27.1258C27.1433 6.77404 27.1611 6.77563 27.1779 6.78117C27.1947 6.78671 27.2099 6.79605 27.2224 6.80844C27.2349 6.82084 27.2443 6.83595 27.2499 6.85258C27.2555 6.86921 27.2571 6.8869 27.2546 6.90425V19.4896C27.2546 19.701 27.2628 19.9285 27.2793 20.1721L27.3193 20.7246L27.3406 21.0441C27.3432 21.0884 27.3323 21.1324 27.3093 21.1704C27.2863 21.2084 27.2523 21.2386 27.2117 21.2571C26.5139 21.5458 25.7871 21.7599 25.0436 21.8959C24.4124 22.0115 23.7726 22.0751 23.1308 22.0859ZM24.2922 19.447V13.6335C24.1762 13.6023 24.0577 13.5809 23.9381 13.5696C23.7918 13.555 23.6449 13.5479 23.4979 13.5483C22.977 13.5431 22.4622 13.6598 21.9953 13.8891C21.5406 14.1134 21.1523 14.451 20.8683 14.8686C20.5849 15.2798 20.4383 15.8168 20.4287 16.4794L20.4282 16.551C20.4178 17.0151 20.4942 17.4772 20.6536 17.9137C20.7833 18.2655 20.9885 18.5852 21.2548 18.8508C21.5097 19.0951 21.8183 19.2774 22.1563 19.3831C22.5134 19.4978 22.8865 19.5553 23.2618 19.5536C23.4621 19.5536 23.6481 19.5465 23.8199 19.5322C23.957 19.5219 24.0929 19.4995 24.2259 19.4652L24.2922 19.447Z" fill="#FF61F6"/>
</g>
<defs>
<clipPath id="clip0_16_5093">
<rect width="32" height="31" fill="white"/>
</clipPath>
</defs>
</svg>
