<svg width="33" height="3" viewBox="0 0 33 3" fill="none" xmlns="http://www.w3.org/2000/svg">
<path d="M0.547014 2.56588L0.725191 2.2533C0.75645 2.20328 0.82522 2.21266 0.853353 2.23141C0.868982 2.23767 1.13781 2.43772 1.38788 2.43772C1.53792 2.43772 1.64733 2.34395 1.64733 2.21266C1.64733 2.05637 1.51604 1.93446 1.25971 1.83443C0.937748 1.70627 0.531388 1.4562 0.531388 1.00294C0.531388 0.630965 0.822094 0.255859 1.40038 0.255859C1.79112 0.255859 2.0912 0.455916 2.20373 0.537189C2.2475 0.562196 2.24125 0.630964 2.22562 0.655971L2.03493 0.946678C2.00993 0.987315 1.94116 1.0217 1.90677 0.996692C1.87239 0.977937 1.59731 0.77163 1.36912 0.77163C1.23471 0.77163 1.13156 0.86228 1.13156 0.962309C1.13156 1.10297 1.24409 1.20613 1.54105 1.32804C1.83488 1.44369 2.30064 1.67501 2.30064 2.18453C2.30064 2.57213 1.96617 2.96287 1.41289 2.96287C0.925251 2.96287 0.653293 2.75969 0.565768 2.67216C0.528258 2.63465 0.515755 2.61902 0.547014 2.56588Z" fill="white"/>
<path d="M5.41679 0.251953C6.17012 0.251953 6.77029 0.858373 6.77029 1.60858C6.77029 2.35879 6.17012 2.95896 5.41679 2.95896C4.66345 2.95896 4.06641 2.36192 4.06641 1.60858C4.06641 0.855248 4.66345 0.251953 5.41679 0.251953ZM5.41679 2.35567C5.8294 2.35567 6.17012 2.01807 6.17012 1.60858C6.17012 1.19909 5.83253 0.852121 5.41679 0.852121C5.00105 0.852121 4.6697 1.19284 4.6697 1.60858C4.6697 2.02433 5.0073 2.35567 5.41679 2.35567Z" fill="white"/>
<path d="M8.73047 0.360958C8.73047 0.323447 8.76172 0.289062 8.80236 0.289062H9.24937C9.28688 0.289062 9.32125 0.323447 9.32125 0.360958V2.36777H10.2153C10.2559 2.36777 10.2872 2.40215 10.2872 2.43967V2.84916C10.2872 2.88667 10.2559 2.92105 10.2153 2.92105H8.80236C8.76172 2.92105 8.73047 2.88667 8.73047 2.84916V0.360958Z" fill="white"/>
<path d="M12.084 0.360958C12.084 0.323447 12.1184 0.289062 12.1559 0.289062H12.6185C12.6592 0.289062 12.6904 0.323447 12.6904 0.360958V1.88326C12.6904 2.14583 12.8873 2.35839 13.153 2.35839C13.4187 2.35839 13.6219 2.14896 13.6219 1.88326V0.360958C13.6219 0.323447 13.6532 0.289062 13.6938 0.289062H14.1564C14.194 0.289062 14.2283 0.323447 14.2283 0.360958V1.91452C14.2283 2.48655 13.747 2.95856 13.153 2.95856C12.5591 2.95856 12.084 2.48343 12.084 1.91452V0.360958Z" fill="white"/>
<path d="M16.6779 0.842343H16.1402C16.0996 0.842343 16.0684 0.807958 16.0684 0.770448V0.360958C16.0684 0.323447 16.0996 0.289062 16.1402 0.289062H17.8095C17.8501 0.289062 17.8814 0.323447 17.8814 0.360958V0.770448C17.8814 0.807958 17.8501 0.842343 17.8095 0.842343H17.2718V2.84916C17.2718 2.88667 17.2374 2.92105 17.1999 2.92105H16.7498C16.7123 2.92105 16.6779 2.88667 16.6779 2.84916V0.842343Z" fill="white"/>
<path d="M19.7578 0.360958C19.7578 0.323447 19.7922 0.289062 19.8297 0.289062H20.2798C20.3173 0.289062 20.3517 0.323447 20.3517 0.360958V2.84916C20.3517 2.88667 20.3173 2.92105 20.2798 2.92105H19.8297C19.7922 2.92105 19.7578 2.88667 19.7578 2.84916V0.360958Z" fill="white"/>
<path d="M23.6609 0.251953C24.4143 0.251953 25.0144 0.858373 25.0144 1.60858C25.0144 2.35879 24.4143 2.95896 23.6609 2.95896C22.9076 2.95896 22.3105 2.36192 22.3105 1.60858C22.3105 0.855248 22.9076 0.251953 23.6609 0.251953ZM23.6609 2.35567C24.0735 2.35567 24.4143 2.01807 24.4143 1.60858C24.4143 1.19909 24.0767 0.852121 23.6609 0.852121C23.2452 0.852121 22.9138 1.19284 22.9138 1.60858C22.9138 2.02433 23.2514 2.35567 23.6609 2.35567Z" fill="white"/>
<path d="M26.9668 0.320722C26.9668 0.283211 27.0012 0.251953 27.0387 0.251953H27.1325L28.6329 1.69611H28.636V0.361358C28.636 0.323848 28.6673 0.289463 28.7079 0.289463H29.158C29.1955 0.289463 29.2299 0.323848 29.2299 0.361358V2.89019C29.2299 2.9277 29.1955 2.95896 29.158 2.95896H29.0987C29.0987 2.95896 29.058 2.94646 29.0486 2.94021L27.5638 1.44916H27.5607V2.85268C27.5607 2.89019 27.5295 2.92458 27.4888 2.92458H27.0418C27.0043 2.92458 26.9699 2.89019 26.9699 2.85268V0.323848L26.9668 0.320722Z" fill="white"/>
<path d="M31.2267 2.56588L31.4049 2.25329C31.4361 2.20328 31.5049 2.21266 31.533 2.23141C31.5487 2.23766 31.8175 2.43772 32.0676 2.43772C32.2176 2.43772 32.327 2.34395 32.327 2.21266C32.327 2.05636 32.1957 1.93446 31.9394 1.83443C31.6174 1.70627 31.2111 1.4562 31.2111 1.00294C31.2111 0.630964 31.5018 0.255859 32.0801 0.255859C32.4708 0.255859 32.7709 0.455916 32.8834 0.537189C32.9272 0.562196 32.9209 0.630964 32.9053 0.655971L32.7146 0.946678C32.6896 0.987314 32.6208 1.0217 32.5864 0.996692C32.5521 0.977936 32.277 0.771629 32.0488 0.771629C31.9144 0.771629 31.8112 0.86228 31.8112 0.962308C31.8112 1.10297 31.9238 1.20613 32.2207 1.32803C32.5146 1.44369 32.9803 1.67501 32.9803 2.18452C32.9803 2.57213 32.6458 2.96287 32.0926 2.96287C31.6049 2.96287 31.333 2.75969 31.2455 2.67216C31.2079 2.63465 31.1954 2.61902 31.2267 2.56588Z" fill="white"/>
</svg>
