<svg width="26" height="24" viewBox="0 0 26 24" fill="none" xmlns="http://www.w3.org/2000/svg">
<path d="M14.7972 4.63618L17.2385 0.692763C15.9138 0.248684 14.4944 0 12.9993 0C12.9047 0 12.829 0 12.7344 0V4.13882C13.4535 4.22763 14.1537 4.3875 14.7972 4.63618Z" fill="url(#paint0_linear_140_9621)"/>
<path d="M18.1104 6.981L22.7849 4.45863C21.763 3.25074 20.5139 2.23824 19.0756 1.49219L16.5586 5.57771C17.1263 5.9685 17.6562 6.44811 18.1104 6.981Z" fill="url(#paint1_linear_140_9621)"/>
<path d="M10.7287 4.13873V0.195312C9.30938 0.443997 7.98463 0.905839 6.77344 1.56308L8.66593 4.6361C9.30938 4.38742 10.0096 4.22755 10.7287 4.13873Z" fill="url(#paint2_linear_140_9621)"/>
<path d="M6.905 5.55983L5.10713 2.62891C4.08518 3.41049 3.19571 4.35193 2.47656 5.39996L5.35315 6.96312C5.80735 6.44799 6.31832 5.96838 6.905 5.55983Z" fill="url(#paint3_linear_140_9621)"/>
<path d="M12.5837 12.5754C6.81164 10.2129 0.96383 12.5577 0.907055 12.5754L0.566406 12.7175C1.11523 18.7215 6.47099 23.4287 13.0001 23.4287C19.5292 23.4287 24.866 18.7393 25.4338 12.7531C24.4686 13.0906 22.0462 13.8011 19.0182 13.8011C17.05 13.8011 14.8358 13.4991 12.5837 12.5754Z" fill="url(#paint4_linear_140_9621)"/>
<path d="M25.4145 10.711C25.2631 9.02346 24.7332 7.42477 23.8816 6.02148L19.1504 8.57938C19.6046 9.53859 19.8695 10.5866 19.8695 11.7057C19.8695 11.759 19.8695 11.83 19.8695 11.8833C22.8597 11.7412 25.036 10.8708 25.0739 10.8531L25.4145 10.711Z" fill="url(#paint5_linear_140_9621)"/>
<path d="M4.31354 8.58018L1.53158 7.07031C1.0206 8.20715 0.679956 9.41505 0.566406 10.6762C1.172 10.4631 2.32643 10.1078 3.84042 9.87689C3.95397 9.43281 4.10537 9.0065 4.31354 8.58018Z" fill="url(#paint6_linear_140_9621)"/>
<defs>
<linearGradient id="paint0_linear_140_9621" x1="0.84382" y1="2.32273" x2="25.0715" y2="2.32273" gradientUnits="userSpaceOnUse">
<stop stop-color="#0DB04B"/>
<stop offset="1" stop-color="#1782C5"/>
</linearGradient>
<linearGradient id="paint1_linear_140_9621" x1="0.8452" y1="4.22805" x2="25.0729" y2="4.22805" gradientUnits="userSpaceOnUse">
<stop stop-color="#0DB04B"/>
<stop offset="1" stop-color="#1782C5"/>
</linearGradient>
<linearGradient id="paint2_linear_140_9621" x1="0.844235" y1="2.4207" x2="25.0719" y2="2.4207" gradientUnits="userSpaceOnUse">
<stop stop-color="#0DB04B"/>
<stop offset="1" stop-color="#1782C5"/>
</linearGradient>
<linearGradient id="paint3_linear_140_9621" x1="0.843322" y1="4.80596" x2="25.071" y2="4.80596" gradientUnits="userSpaceOnUse">
<stop stop-color="#0DB04B"/>
<stop offset="1" stop-color="#1782C5"/>
</linearGradient>
<linearGradient id="paint4_linear_140_9621" x1="0.566406" y1="17.4692" x2="25.0923" y2="17.4692" gradientUnits="userSpaceOnUse">
<stop stop-color="#0DB04B"/>
<stop offset="1" stop-color="#1782C5"/>
</linearGradient>
<linearGradient id="paint5_linear_140_9621" x1="0.844275" y1="8.94926" x2="25.0719" y2="8.94926" gradientUnits="userSpaceOnUse">
<stop stop-color="#0DB04B"/>
<stop offset="1" stop-color="#1782C5"/>
</linearGradient>
<linearGradient id="paint6_linear_140_9621" x1="0.844584" y1="8.88075" x2="25.0723" y2="8.88075" gradientUnits="userSpaceOnUse">
<stop stop-color="#0DB04B"/>
<stop offset="1" stop-color="#1782C5"/>
</linearGradient>
</defs>
</svg>
