<svg width="82" height="26" viewBox="0 0 82 26" fill="none" xmlns="http://www.w3.org/2000/svg">
<g clip-path="url(#clip0_205_1938)">
<path d="M15.0234 3.79907C13.4701 3.4758 11.8615 3.53134 10.3343 3.96096C8.80708 4.39058 7.40648 5.18157 6.25154 6.26669C5.09661 7.35186 4.22148 8.69904 3.70054 10.1938C3.17961 11.6885 3.02828 13.2865 3.25942 14.8521C3.49056 16.4176 4.09733 17.9044 5.02815 19.186C5.95899 20.4675 7.18634 21.506 8.60587 22.2131C10.0254 22.9203 11.5952 23.2751 13.1818 23.2475C14.7683 23.22 16.3248 22.8108 17.7187 22.0548L17.0896 20.9011C15.8818 21.5561 14.5334 21.9106 13.1588 21.9345C11.7843 21.9584 10.4243 21.6509 9.19438 21.0383C7.9645 20.4256 6.90115 19.5259 6.09469 18.4156C5.28823 17.3052 4.76255 16.0172 4.5623 14.6608C4.36201 13.3044 4.49313 11.9199 4.94446 10.6249C5.3958 9.32991 6.15398 8.16272 7.15459 7.22257C8.15525 6.28242 9.36868 5.59715 10.6918 5.22493C12.015 4.85271 13.4086 4.80457 14.7544 5.08466L15.0234 3.79907Z" fill="#F5AB1A"/>
<path d="M19.4961 6.51632C18.4309 5.37542 17.1248 4.51897 15.6825 4.01562L15.2578 5.33147C16.5074 5.76756 17.639 6.50957 18.5619 7.49803L19.4961 6.51632Z" fill="#F5AB1A"/>
<path d="M14.8676 1.04196C12.6301 0.637096 10.3244 0.842895 8.19462 1.63759C6.06477 2.43228 4.18992 3.78631 2.76844 5.55641C1.34695 7.32655 0.431687 9.44694 0.119471 11.6932C-0.192744 13.9395 0.109702 16.2282 0.994812 18.3172C1.87992 20.4061 3.31478 22.2176 5.14759 23.5601C6.98039 24.9025 9.14296 25.726 11.4065 25.9432C13.6701 26.1605 15.9505 25.7637 18.0064 24.7945C20.0624 23.8254 21.8174 22.3201 23.0859 20.4379L21.9969 19.7081C20.8604 21.3946 19.2879 22.7433 17.4458 23.6117C15.6037 24.48 13.5604 24.8356 11.5323 24.6409C9.5041 24.4462 7.56642 23.7084 5.92423 22.5056C4.28205 21.3027 2.9964 19.6796 2.20335 17.8079C1.41029 15.9362 1.13929 13.8856 1.41904 11.8729C1.69878 9.86017 2.51886 7.96032 3.79251 6.37428C5.06618 4.78828 6.74604 3.57505 8.65437 2.863C10.5627 2.15096 12.6286 1.96656 14.6334 2.32932L14.8676 1.04196Z" fill="#F5AB1A"/>
<path d="M9.31836 18.8885C9.93592 19.5044 10.6768 19.9834 11.4927 20.2943C12.3085 20.6052 13.1809 20.7409 14.053 20.6926C14.925 20.6444 15.777 20.4132 16.5534 20.0142C17.3297 19.6152 18.0129 19.0573 18.5583 18.3771L17.4853 17.5215C17.0606 18.0512 16.5286 18.4857 15.924 18.7964C15.3194 19.1071 14.6559 19.2871 13.9768 19.3247C13.2978 19.3623 12.6184 19.2566 11.983 19.0145C11.3477 18.7724 10.7707 18.3994 10.2898 17.9198L9.31836 18.8885Z" fill="#F5AB1A"/>
<path d="M11.0078 8.58374H14.0199C14.6297 8.58374 15.1622 8.65264 15.6175 8.79048C16.0809 8.92833 16.4792 9.11477 16.8126 9.3499C17.154 9.5769 17.4345 9.84042 17.654 10.1404C17.8816 10.4404 18.0605 10.7485 18.1906 11.0646C18.3207 11.3808 18.4142 11.697 18.4711 12.0132C18.528 12.3294 18.5564 12.6213 18.5564 12.8888C18.5564 13.4402 18.4548 13.9753 18.2516 14.4941C18.0483 15.0049 17.7475 15.463 17.3491 15.8684C16.9508 16.2656 16.4548 16.5859 15.8614 16.8291C15.276 17.0723 14.5972 17.1939 13.8248 17.1939H11.0078V8.58374ZM12.1785 16.0994H13.6541C14.15 16.0994 14.6175 16.0345 15.0565 15.9048C15.5036 15.767 15.8939 15.5643 16.2272 15.2968C16.5606 15.0292 16.8248 14.6968 17.0199 14.2995C17.215 13.8942 17.3126 13.4239 17.3126 12.8888C17.3126 12.6132 17.2679 12.2929 17.1784 11.9281C17.089 11.5552 16.9182 11.2025 16.6662 10.8701C16.4223 10.5376 16.0809 10.2579 15.6419 10.0309C15.2028 9.7958 14.6338 9.67826 13.9346 9.67826H12.1785V16.0994ZM20.7907 14.713C20.7907 14.9644 20.8435 15.1954 20.9492 15.4062C21.063 15.6089 21.2094 15.7832 21.3882 15.9292C21.5671 16.0751 21.7744 16.1886 22.0102 16.2697C22.2459 16.3507 22.4898 16.3913 22.7418 16.3913C23.0833 16.3913 23.3801 16.3143 23.6321 16.1602C23.8841 15.9981 24.1158 15.7873 24.3272 15.5278L25.1564 16.1602C24.5467 16.9466 23.693 17.3399 22.5955 17.3399C22.1403 17.3399 21.7256 17.2628 21.3516 17.1088C20.9858 16.9548 20.6728 16.744 20.4126 16.4764C20.1606 16.2008 19.9655 15.8805 19.8273 15.5157C19.6891 15.1427 19.62 14.7414 19.62 14.3117C19.62 13.882 19.6931 13.4847 19.8395 13.1199C19.994 12.747 20.2013 12.4267 20.4614 12.1592C20.7297 11.8835 21.0468 11.6686 21.4126 11.5146C21.7784 11.3606 22.1768 11.2835 22.6077 11.2835C23.1199 11.2835 23.5508 11.3727 23.9004 11.5511C24.2581 11.7294 24.5508 11.9646 24.7784 12.2565C25.0061 12.5402 25.1686 12.8645 25.2662 13.2294C25.3719 13.5861 25.4247 13.9509 25.4247 14.3239V14.713H20.7907ZM24.254 13.8374C24.2459 13.5942 24.2052 13.3712 24.1321 13.1685C24.067 12.9659 23.9654 12.7915 23.8272 12.6456C23.689 12.4916 23.5142 12.374 23.3028 12.2929C23.0996 12.2037 22.8598 12.1592 22.5833 12.1592C22.315 12.1592 22.0671 12.2119 21.8394 12.3173C21.6199 12.4145 21.433 12.5443 21.2785 12.7064C21.124 12.8686 21.0021 13.051 20.9126 13.2537C20.8313 13.4483 20.7907 13.6428 20.7907 13.8374H24.254ZM26.823 8H27.9206V17.1939H26.823V8ZM29.7527 11.4295H30.8502V17.1939H29.7527V11.4295ZM29.4966 9.36206C29.4966 9.14316 29.5738 8.95667 29.7283 8.80264C29.8909 8.64048 30.0819 8.55942 30.3014 8.55942C30.521 8.55942 30.7079 8.64048 30.8624 8.80264C31.025 8.95667 31.1063 9.14316 31.1063 9.36206C31.1063 9.58097 31.025 9.77148 30.8624 9.93365C30.7079 10.0877 30.521 10.1647 30.3014 10.1647C30.0819 10.1647 29.8909 10.0877 29.7283 9.93365C29.5738 9.77148 29.4966 9.58097 29.4966 9.36206ZM31.9018 11.4295H33.1701L34.9018 15.844L36.5603 11.4295H37.731L35.4627 17.1939H34.2554L31.9018 11.4295ZM39.5236 14.713C39.5236 14.9644 39.5764 15.1954 39.6822 15.4062C39.7959 15.6089 39.9423 15.7832 40.1212 15.9292C40.3 16.0751 40.5073 16.1886 40.7431 16.2697C40.9789 16.3507 41.2227 16.3913 41.4748 16.3913C41.8163 16.3913 42.1131 16.3143 42.365 16.1602C42.6169 15.9981 42.8486 15.7873 43.0601 15.5278L43.8894 16.1602C43.2796 16.9466 42.426 17.3399 41.3285 17.3399C40.8732 17.3399 40.4586 17.2628 40.0846 17.1088C39.7187 16.9548 39.4057 16.744 39.1456 16.4764C38.8935 16.2008 38.6984 15.8805 38.5602 15.5157C38.422 15.1427 38.3529 14.7414 38.3529 14.3117C38.3529 13.882 38.4261 13.4847 38.5724 13.1199C38.7269 12.747 38.9342 12.4267 39.1944 12.1592C39.4627 11.8835 39.7797 11.6686 40.1456 11.5146C40.5114 11.3606 40.9098 11.2835 41.3407 11.2835C41.8528 11.2835 42.2839 11.3727 42.6333 11.5511C42.9912 11.7294 43.2839 11.9646 43.5113 12.2565C43.7388 12.5402 43.9016 12.8645 43.9991 13.2294C44.1047 13.5861 44.1577 13.9509 44.1577 14.3239V14.713H39.5236ZM42.987 13.8374C42.979 13.5942 42.9382 13.3712 42.865 13.1685C42.7998 12.9659 42.6985 12.7915 42.5602 12.6456C42.4218 12.4916 42.2473 12.374 42.0358 12.2929C41.8325 12.2037 41.5927 12.1592 41.3163 12.1592C41.048 12.1592 40.8 12.2119 40.5724 12.3173C40.3529 12.4145 40.1659 12.5443 40.0114 12.7064C39.8569 12.8686 39.735 13.051 39.6456 13.2537C39.5643 13.4483 39.5236 13.6428 39.5236 13.8374H42.987ZM45.4705 11.4295H46.5681V12.3173H46.5924C46.6656 12.1632 46.7632 12.0254 46.8851 11.9038C47.0071 11.7741 47.1412 11.6646 47.2876 11.5754C47.4423 11.4862 47.6088 11.4173 47.7875 11.3687C47.9667 11.3119 48.1454 11.2835 48.3241 11.2835C48.5033 11.2835 48.6656 11.3079 48.8119 11.3565L48.7631 12.5362C48.674 12.5118 48.5844 12.4916 48.4948 12.4754C48.4057 12.4591 48.3161 12.451 48.2266 12.451C47.69 12.451 47.2796 12.601 46.9949 12.901C46.7106 13.201 46.5681 13.6672 46.5681 14.2995V17.1939H45.4705V11.4295ZM49.2892 11.4295H50.5575L52.2769 15.9292H52.3013L53.9354 11.4295H55.1183L52.3745 18.4344C52.2769 18.6857 52.1752 18.9127 52.0696 19.1154C51.9637 19.3262 51.8379 19.5046 51.6916 19.6505C51.5452 19.7965 51.3661 19.91 51.155 19.991C50.9515 20.0721 50.6996 20.1126 50.3989 20.1126C50.2362 20.1126 50.0697 20.1005 49.8989 20.0762C49.7362 20.0599 49.5777 20.0194 49.4233 19.9545L49.5575 18.9573C49.777 19.0465 49.9965 19.0911 50.216 19.0911C50.3867 19.0911 50.5289 19.0668 50.6428 19.0181C50.7648 18.9776 50.8661 18.9127 50.9477 18.8235C51.0368 18.7425 51.11 18.6452 51.1672 18.5317C51.224 18.4182 51.2807 18.2885 51.3379 18.1425L51.6916 17.2304L49.2892 11.4295ZM63.7195 17.4128C63.061 17.4128 62.4555 17.2993 61.9025 17.0723C61.3495 16.8372 60.8739 16.517 60.4757 16.1116C60.0854 15.7062 59.7764 15.2279 59.5489 14.6765C59.3294 14.1252 59.2196 13.5293 59.2196 12.8888C59.2196 12.2484 59.3294 11.6525 59.5489 11.1011C59.7764 10.5498 60.0854 10.0715 60.4757 9.6661C60.8739 9.26071 61.3495 8.94451 61.9025 8.71752C62.4555 8.48238 63.061 8.36484 63.7195 8.36484C64.378 8.36484 64.9836 8.48238 65.5365 8.71752C66.0895 8.94451 66.5609 9.26071 66.9512 9.6661C67.3494 10.0715 67.6585 10.5498 67.878 11.1011C68.1055 11.6525 68.2194 12.2484 68.2194 12.8888C68.2194 13.5293 68.1055 14.1252 67.878 14.6765C67.6585 15.2279 67.3494 15.7062 66.9512 16.1116C66.5609 16.517 66.0895 16.8372 65.5365 17.0723C64.9836 17.2993 64.378 17.4128 63.7195 17.4128ZM63.7195 16.3183C64.2153 16.3183 64.6627 16.2291 65.061 16.0508C65.4592 15.8643 65.8006 15.617 66.0853 15.3089C66.37 15.0008 66.5895 14.6401 66.7438 14.2266C66.8982 13.805 66.9755 13.3591 66.9755 12.8888C66.9755 12.4186 66.8982 11.9767 66.7438 11.5633C66.5895 11.1417 66.37 10.7768 66.0853 10.4687C65.8006 10.1606 65.4592 9.91742 65.061 9.73906C64.6627 9.55258 64.2153 9.45935 63.7195 9.45935C63.2237 9.45935 62.7763 9.55258 62.3781 9.73906C61.9799 9.91742 61.6384 10.1606 61.3537 10.4687C61.069 10.7768 60.8495 11.1417 60.6952 11.5633C60.5409 11.9767 60.4635 12.4186 60.4635 12.8888C60.4635 13.3591 60.5409 13.805 60.6952 14.2266C60.8495 14.6401 61.069 15.0008 61.3537 15.3089C61.6384 15.617 61.9799 15.8643 62.3781 16.0508C62.7763 16.2291 63.2237 16.3183 63.7195 16.3183ZM69.6223 11.4295H70.7198V12.2565H70.7442C70.9553 11.9484 71.2442 11.7092 71.61 11.5389C71.9838 11.3687 72.3661 11.2835 72.7563 11.2835C73.2033 11.2835 73.6058 11.3606 73.9636 11.5146C74.3295 11.6686 74.6381 11.8835 74.8904 12.1592C75.1503 12.4348 75.3496 12.7591 75.488 13.1321C75.6259 13.4969 75.6953 13.8901 75.6953 14.3117C75.6953 14.7414 75.6259 15.1427 75.488 15.5157C75.3496 15.8805 75.1503 16.2008 74.8904 16.4764C74.6381 16.744 74.3295 16.9548 73.9636 17.1088C73.6058 17.2628 73.2033 17.3399 72.7563 17.3399C72.3417 17.3399 71.9515 17.2547 71.5856 17.0845C71.2198 16.9061 70.9393 16.6669 70.7442 16.367H70.7198V20.6234H69.6223V11.4295ZM72.6222 12.3051C72.3295 12.3051 72.065 12.3578 71.8295 12.4632C71.5936 12.5605 71.3943 12.6983 71.232 12.8767C71.0692 13.0469 70.9431 13.2577 70.8539 13.5091C70.7644 13.7523 70.7198 14.0198 70.7198 14.3117C70.7198 14.6036 70.7644 14.8752 70.8539 15.1265C70.9431 15.3697 71.0692 15.5806 71.232 15.7589C71.3943 15.9292 71.5936 16.067 71.8295 16.1724C72.065 16.2697 72.3295 16.3183 72.6222 16.3183C72.9149 16.3183 73.179 16.2697 73.4149 16.1724C73.6503 16.067 73.8497 15.9292 74.0124 15.7589C74.1747 15.5806 74.3009 15.3697 74.3904 15.1265C74.4796 14.8752 74.5246 14.6036 74.5246 14.3117C74.5246 14.0198 74.4796 13.7523 74.3904 13.5091C74.3009 13.2577 74.1747 13.0469 74.0124 12.8767C73.8497 12.6983 73.6503 12.5605 73.4149 12.4632C73.179 12.3578 72.9149 12.3051 72.6222 12.3051ZM80.1502 12.8767C80.0203 12.7145 79.8575 12.5807 79.6624 12.4754C79.4757 12.3618 79.244 12.3051 78.9673 12.3051C78.7074 12.3051 78.4795 12.3618 78.2844 12.4754C78.0977 12.5807 78.0039 12.7388 78.0039 12.9496C78.0039 13.1199 78.0569 13.2577 78.1624 13.3631C78.2764 13.4685 78.4063 13.5536 78.5527 13.6185C78.7074 13.6834 78.8698 13.732 79.0405 13.7645C79.2112 13.7969 79.3575 13.8253 79.4795 13.8496C79.7154 13.9063 79.9349 13.9753 80.138 14.0563C80.3495 14.1374 80.5283 14.2428 80.6746 14.3725C80.8293 14.5022 80.9471 14.6603 81.0282 14.8468C81.1178 15.0333 81.1624 15.2603 81.1624 15.5278C81.1624 15.8521 81.0934 16.1318 80.9551 16.367C80.8171 16.594 80.638 16.7805 80.4185 16.9264C80.199 17.0723 79.9471 17.1777 79.6624 17.2426C79.3861 17.3075 79.1057 17.3399 78.821 17.3399C78.3416 17.3399 77.9185 17.2669 77.5527 17.121C77.1953 16.975 76.874 16.7075 76.5893 16.3183L77.4186 15.6373C77.5977 15.8156 77.7966 15.9737 78.0161 16.1116C78.2356 16.2494 78.5039 16.3183 78.821 16.3183C78.9593 16.3183 79.0977 16.3062 79.2356 16.2818C79.3819 16.2494 79.5081 16.2048 79.6136 16.1481C79.7276 16.0832 79.8172 16.0062 79.8819 15.917C79.9551 15.8197 79.9917 15.7103 79.9917 15.5886C79.9917 15.4265 79.9391 15.2927 79.8331 15.1873C79.7356 15.0819 79.6136 15.0008 79.4673 14.9441C79.3294 14.8792 79.1788 14.8306 79.0161 14.7982C78.8618 14.7576 78.7234 14.7252 78.6015 14.7009C78.366 14.6441 78.1423 14.5793 77.9307 14.5063C77.7197 14.4333 77.5325 14.336 77.3698 14.2144C77.2075 14.0928 77.0771 13.9388 76.9795 13.7523C76.882 13.5658 76.8332 13.3347 76.8332 13.0591C76.8332 12.7591 76.8942 12.4997 77.0161 12.2808C77.1465 12.0538 77.313 11.8673 77.5161 11.7214C77.7276 11.5754 77.9635 11.466 78.2234 11.393C78.4917 11.32 78.76 11.2835 79.0283 11.2835C79.4185 11.2835 79.7928 11.3565 80.1502 11.5025C80.5081 11.6484 80.7928 11.8916 81.0039 12.2321L80.1502 12.8767Z" fill="white"/>
<path d="M18.5025 4.61328L20.3234 7.75844H16.6816L18.5025 4.61328Z" fill="#F5AB1A"/>
<path d="M14.7173 0L16.5382 3.14516H12.8965L14.7173 0Z" fill="#F5AB1A"/>
<path d="M23.5934 18.9062L23.0813 22.5019L20.2148 20.2618L23.5934 18.9062Z" fill="#F5AB1A"/>
</g>
<defs>
<clipPath id="clip0_205_1938">
<rect width="82" height="26" fill="white"/>
</clipPath>
</defs>
</svg>
